<?xml version="1.0" encoding="UTF-8"?>
<svg id="Layer_1" data-name="Layer 1" xmlns="http://www.w3.org/2000/svg" viewBox="0 0 1080 632.81">
  <defs>
    <style>
      .cls-1 {
        fill: #fff;
      }

      .cls-2 {
        fill: #91be3e;
      }
    </style>
  </defs>
  <path class="cls-1" d="M844.16,197.89c-4.07-2.95-8.19-5.29-12.38-7.06-4.16-1.73-8.1-2.61-11.75-2.61-4.93,0-9.56,.69-13.9,2.04-4.33,1.37-8.13,3.25-11.44,5.66-3.3,2.41-5.91,5.27-7.87,8.58-1.92,3.27-2.89,6.85-2.89,10.75,0,4.48,.74,8.31,2.21,11.47,1.46,3.12,3.81,5.91,7.08,8.37,3.21,2.46,7.44,4.82,12.62,7,5.17,2.17,11.47,4.56,18.9,7.03,3.68,1.49,7.33,2.9,11.07,4.18,3.7,1.3,7.32,2.72,10.9,4.24,3.54,1.53,7.05,3.18,10.49,4.95,3.45,1.8,6.76,3.89,9.88,6.29,15.81,12.02,23.68,28.26,23.68,48.66,0,10.26-2.07,19.63-6.25,28.1-4.19,8.47-9.83,15.77-16.95,21.88-7.12,6.1-15.32,10.93-24.61,14.3-9.33,3.4-19.03,5.11-29.21,5.11-20.18,0-37.07-6.05-50.67-18.04-2.71-2.42-5.11-4.83-7.21-7.28-2.08-2.44-3.88-4.85-5.42-7.14-1.51-2.3-2.76-4.39-3.83-6.27-1.06-1.9-1.87-3.44-2.51-4.72l7.51-3.92c3.99-2.43,8.13-3.62,12.4-3.62,6.81,0,12.55,2.46,17.25,7.38l2.55,2.04c3.96,3.36,8.38,5.95,13.24,7.78,4.85,1.84,10.42,2.75,16.69,2.75,5.14,0,10.4-.84,15.85-2.53,5.46-1.65,10.38-4.11,14.82-7.28,4.46-3.2,8.12-7.17,10.99-11.92,2.88-4.76,4.34-10.29,4.34-16.56s-1.4-11.06-4.11-15.05c-2.7-3.98-6.23-7.37-10.57-10.17-4.35-2.87-9.18-5.25-14.58-7.26-5.37-1.98-10.69-4.01-15.91-6.1-7.75-3.03-15.33-6.17-22.68-9.43-7.38-3.22-13.94-7.19-19.75-11.84-5.81-4.66-10.47-10.33-14-17.09-3.51-6.76-5.22-15.15-5.22-25.18,0-9.2,1.89-17.41,5.7-24.65,3.82-7.19,8.89-13.28,15.12-18.26,6.3-4.96,13.44-8.75,21.53-11.39,8.05-2.59,16.3-3.91,24.78-3.91,6.15,0,12.29,1.04,18.32,3.16,6.09,2.05,11.78,4.72,17.13,7.97,5.33,3.25,10.12,6.81,14.44,10.69,4.25,3.86,7.8,7.54,10.64,10.98l-8,5.95c-4.4,3.75-9.47,5.65-15.25,5.65-4.88,0-9.28-1.22-13.17-3.67Z"/>
  <path class="cls-1" d="M225.2,386.83h-31.06V157.16h88.42c8.67,0,16.88,1.69,24.58,5.05,7.68,3.36,14.38,7.94,20.1,13.78,5.73,5.83,10.21,12.68,13.51,20.52,3.31,7.85,4.95,16.22,4.95,25.08,0,4.93-.74,10.03-2.23,15.32-1.46,5.29-3.41,10.15-5.85,14.58-2.37,4.42-5.14,8.12-8.24,11.04-3.13,2.93-6.34,4.52-9.69,4.73,.69,0,1.72,.09,2.95,.25,1.27,.18,2.59,.46,3.99,.88,1.42,.44,2.81,.97,4.25,1.61,1.41,.63,2.67,1.51,3.81,2.54,6.3,6.1,11.46,13.24,15.54,21.42,4.1,8.19,6.13,17.06,6.13,26.7s-1.72,17.76-5.09,25.8c-3.43,8.02-8.03,14.98-13.9,20.92-5.85,5.91-12.7,10.61-20.54,14.08-7.86,3.46-16.26,5.23-25.25,5.23l-66.38,.15Zm0-197.94v65.55h57.26c4.4,0,8.54-.85,12.48-2.56,3.93-1.71,7.35-4.06,10.28-7.05,2.92-3,5.2-6.48,6.89-10.42,1.67-3.95,2.49-8.17,2.49-12.67s-.83-8.73-2.49-12.76c-1.69-3.98-3.98-7.49-6.89-10.48-2.93-2.99-6.35-5.33-10.28-7.03-3.94-1.73-8.09-2.58-12.48-2.58h-57.26Zm66.38,166.22c4.69,0,9.1-.93,13.18-2.76,4.07-1.8,7.62-4.3,10.65-7.43,3.06-3.19,5.45-6.88,7.22-11.04,1.79-4.16,2.67-8.6,2.67-13.33s-.88-9.13-2.67-13.32c-1.77-4.19-4.17-7.8-7.22-10.93-3.03-3.11-6.58-5.56-10.65-7.39-4.08-1.83-8.42-2.75-13.05-2.75h-66.51v68.94h66.38Z"/>
  <path class="cls-2" d="M517.27,272.55c0-10.5,1.35-20.69,4.09-30.5,2.7-9.75,6.56-18.92,11.59-27.42,5.03-8.52,10.99-16.26,17.96-23.22,6.95-6.96,14.68-12.95,23.23-17.97,8.51-5.01,17.63-8.85,27.46-11.57,9.75-2.73,19.9-4.09,30.48-4.09s20.76,1.36,30.52,4.09c9.77,2.72,18.9,6.56,27.44,11.57,8.52,5.02,16.26,11.01,23.23,17.97,6.97,6.96,12.93,14.7,17.93,23.22,5.04,8.5,8.9,17.67,11.63,27.42,2.71,9.8,4.05,19.99,4.05,30.5s-1.34,20.78-4.05,30.53c-2.73,9.79-6.59,18.93-11.63,27.47-5,8.51-10.97,16.25-17.93,23.17-6.97,6.98-14.71,12.96-23.23,17.98-8.55,5.02-17.68,8.9-27.44,11.62-9.76,2.73-19.97,4.08-30.52,4.08-15.87,0-30.8-3.01-44.7-9.05-13.92-5.99-26.07-14.2-36.47-24.63-10.41-10.38-18.61-22.55-24.62-36.45-6.02-13.89-9.02-28.78-9.02-44.71Zm31.04,0c0,11.67,2.21,22.49,6.61,32.65,4.4,10.13,10.38,18.99,17.96,26.56,7.56,7.6,16.45,13.61,26.59,17.99,10.12,4.37,21.04,6.57,32.62,6.57s22.5-2.2,32.64-6.57c10.12-4.39,18.99-10.39,26.57-17.99,7.6-7.57,13.6-16.43,17.99-26.56,4.4-10.16,6.57-20.99,6.57-32.65s-2.17-22.45-6.57-32.59c-4.39-10.14-10.38-19.01-17.99-26.59-7.58-7.58-16.45-13.58-26.57-17.97-10.15-4.41-21.02-6.58-32.64-6.58s-22.5,2.17-32.62,6.58c-10.14,4.4-19.03,10.4-26.59,17.97-7.58,7.58-13.56,16.45-17.96,26.59-4.39,10.15-6.61,21.01-6.61,32.59Z"/>
  <path class="cls-1" d="M525.82,342.14c-6.35,4.1-13.09,7.34-20.28,9.7-7.95,2.62-16.42,3.93-25.41,3.93-11.63,0-22.5-2.2-32.66-6.61-10.13-4.37-18.99-10.37-26.57-17.96-7.58-7.59-13.57-16.41-17.95-26.58-4.39-10.14-6.61-21.03-6.61-32.64s2.21-22.48,6.61-32.6c4.38-10.17,10.37-19.02,17.95-26.61,7.58-7.58,16.45-13.6,26.57-17.96,10.16-4.39,21.03-6.6,32.66-6.6,8.87,0,17.34,1.32,25.33,3.92,7.23,2.37,14,5.61,20.34,9.67,4-5.62,8.42-10.91,13.26-15.74,2.57-2.56,5.24-5.01,8.02-7.31-.06-.07-.14-.12-.21-.18-6.33-4.57-13.04-8.4-20.14-11.52-7.13-3.17-14.62-5.59-22.46-7.31-7.81-1.71-15.89-2.59-24.14-2.59-10.57,0-20.7,1.36-30.53,4.07-9.77,2.73-18.92,6.59-27.44,11.62-8.5,5.02-16.26,11.01-23.22,17.96-6.95,6.94-12.95,14.73-17.96,23.22-5.01,8.5-8.9,17.66-11.61,27.45-2.74,9.8-4.09,19.97-4.09,30.5,0,15.93,3.01,30.8,9.03,44.71,6.01,13.91,14.22,26.07,24.63,36.49,10.39,10.4,22.56,18.62,36.48,24.63,13.91,6,28.8,9.01,44.72,9.01,8.25,0,16.33-.86,24.14-2.59,7.84-1.72,15.32-4.17,22.46-7.32,7.09-3.12,13.81-6.98,20.14-11.53,.1-.04,.16-.11,.25-.16-2.8-2.31-5.48-4.76-8.05-7.35-4.86-4.86-9.26-10.13-13.24-15.74Z"/>
  <g>
    <path class="cls-1" d="M206.38,422.09h3.01l15.05,36.23h-3.78l-4.53-11.33h-16.56l-4.53,11.33h-3.83l15.16-36.23Zm8.64,22.1l-7.16-17.91-7.16,17.91h14.32Z"/>
    <path class="cls-1" d="M231.59,458.33v-36.23h3.57v36.23h-3.57Z"/>
    <path class="cls-1" d="M272.36,422.09h3.01l15.05,36.23h-3.78l-4.53-11.33h-16.56l-4.53,11.33h-3.83l15.16-36.23Zm8.64,22.1l-7.16-17.91-7.16,17.91h14.32Z"/>
    <path class="cls-1" d="M296.04,447.4v-15.56h3.47v14.94c0,3.02,.52,5.27,1.56,6.76,1.04,1.49,2.58,2.24,4.62,2.24,1.36,0,2.68-.3,3.96-.89,1.28-.59,2.41-1.44,3.39-2.54,.99-1.1,1.74-2.38,2.25-3.83v-16.68h3.47v22.31c0,.47,.1,.82,.31,1.04,.2,.22,.51,.35,.92,.38v2.76c-.41,.03-.73,.06-.97,.08-.24,.02-.46,.03-.66,.03-.68-.07-1.27-.34-1.76-.81-.49-.47-.76-1.05-.79-1.73l-.1-3.56c-1.16,2.03-2.73,3.63-4.72,4.78-1.99,1.15-4.14,1.73-6.46,1.73-2.79,0-4.9-.97-6.33-2.9-1.43-1.93-2.14-4.78-2.14-8.54Z"/>
    <path class="cls-1" d="M341.31,457.25c-.27,.1-.7,.29-1.28,.56-.58,.27-1.28,.51-2.09,.71s-1.7,.31-2.65,.31-1.91-.19-2.78-.56c-.87-.38-1.56-.95-2.07-1.72-.51-.77-.77-1.72-.77-2.84v-19.12h-3.67v-2.76h3.67v-8.98h3.47v8.98h6.12v2.76h-6.12v18.15c.07,.96,.42,1.68,1.05,2.15,.63,.48,1.35,.72,2.17,.72,.95,0,1.82-.16,2.6-.48,.78-.32,1.26-.55,1.43-.69l.92,2.81Z"/>
    <path class="cls-1" d="M358.5,458.84c-1.94,0-3.72-.36-5.33-1.09-1.62-.73-3.01-1.73-4.19-2.99-1.17-1.27-2.08-2.72-2.73-4.36-.65-1.64-.97-3.37-.97-5.2s.32-3.66,.97-5.3c.65-1.64,1.56-3.1,2.76-4.36,1.19-1.27,2.59-2.27,4.21-2.99,1.62-.73,3.38-1.09,5.28-1.09s3.66,.36,5.26,1.09c1.6,.73,2.99,1.73,4.18,2.99,1.19,1.27,2.11,2.72,2.76,4.36,.65,1.64,.97,3.41,.97,5.3s-.32,3.56-.97,5.2c-.65,1.64-1.56,3.1-2.73,4.36-1.17,1.27-2.57,2.27-4.19,2.99-1.62,.73-3.38,1.09-5.28,1.09Zm-9.7-13.6c0,1.96,.43,3.74,1.3,5.35,.87,1.6,2.03,2.87,3.5,3.8,1.46,.93,3.08,1.39,4.85,1.39s3.38-.47,4.85-1.42c1.46-.95,2.64-2.24,3.52-3.88,.88-1.64,1.33-3.44,1.33-5.4s-.44-3.7-1.33-5.32c-.89-1.62-2.06-2.91-3.52-3.85-1.46-.95-3.08-1.42-4.85-1.42s-3.39,.49-4.85,1.47c-1.46,.98-2.63,2.27-3.5,3.88-.87,1.6-1.3,3.4-1.3,5.4Z"/>
    <path class="cls-1" d="M418.98,458.33h-3.47v-14.76c0-3.08-.49-5.34-1.48-6.79-.99-1.45-2.45-2.18-4.39-2.18s-3.8,.71-5.38,2.13c-1.58,1.42-2.7,3.25-3.34,5.48v16.12h-3.47v-14.76c0-3.11-.48-5.38-1.43-6.82-.95-1.44-2.42-2.16-4.39-2.16s-3.76,.69-5.36,2.08c-1.6,1.38-2.72,3.21-3.37,5.47v16.19h-3.47v-26.49h3.16v6.04c1.12-2.06,2.56-3.65,4.31-4.77,1.75-1.12,3.7-1.67,5.84-1.67s4,.63,5.36,1.88c1.36,1.25,2.19,2.89,2.5,4.92,1.22-2.23,2.7-3.92,4.41-5.07,1.72-1.15,3.67-1.73,5.84-1.73,1.5,0,2.76,.27,3.8,.81,1.04,.54,1.87,1.31,2.5,2.31,.63,1,1.09,2.2,1.38,3.6,.29,1.4,.43,2.97,.43,4.69v15.48Z"/>
    <path class="cls-1" d="M426.12,450.72c0-1.66,.48-3.08,1.43-4.29,.95-1.2,2.27-2.13,3.96-2.79,1.68-.66,3.63-.99,5.84-.99,1.29,0,2.64,.1,4.03,.31,1.39,.2,2.64,.51,3.73,.92v-2.24c0-2.23-.66-4.01-1.99-5.33-1.33-1.32-3.16-1.98-5.51-1.98-1.43,0-2.83,.26-4.21,.79-1.38,.53-2.82,1.3-4.31,2.32l-1.33-2.45c1.74-1.19,3.44-2.08,5.1-2.68,1.67-.59,3.37-.89,5.1-.89,3.27,0,5.85,.93,7.76,2.79,1.91,1.86,2.86,4.43,2.86,7.71v12.22c0,.47,.1,.82,.31,1.04,.2,.22,.53,.35,.97,.38v2.76c-.37,.03-.7,.07-.97,.1-.27,.03-.48,.03-.61,0-.85-.03-1.5-.31-1.94-.82-.44-.51-.68-1.05-.71-1.63l-.05-1.94c-1.19,1.53-2.74,2.71-4.64,3.55-1.91,.83-3.84,1.25-5.82,1.25-1.7,0-3.24-.36-4.62-1.09-1.38-.73-2.45-1.71-3.21-2.94-.77-1.23-1.15-2.59-1.15-4.08Zm17.81,2.02c.37-.47,.66-.93,.87-1.37,.2-.44,.31-.83,.31-1.16v-3.84c-1.16-.44-2.36-.78-3.6-1.01-1.24-.24-2.49-.35-3.75-.35-2.48,0-4.49,.49-6.02,1.47-1.53,.98-2.3,2.31-2.3,3.99,0,.98,.26,1.9,.77,2.76,.51,.86,1.26,1.57,2.25,2.12,.99,.56,2.14,.83,3.47,.83,1.67,0,3.22-.32,4.67-.96,1.45-.64,2.56-1.47,3.34-2.48Z"/>
    <path class="cls-1" d="M470.57,457.25c-.27,.1-.7,.29-1.28,.56-.58,.27-1.28,.51-2.09,.71s-1.7,.31-2.65,.31-1.91-.19-2.78-.56c-.87-.38-1.56-.95-2.07-1.72-.51-.77-.77-1.72-.77-2.84v-19.12h-3.67v-2.76h3.67v-8.98h3.47v8.98h6.12v2.76h-6.12v18.15c.07,.96,.42,1.68,1.05,2.15,.63,.48,1.35,.72,2.17,.72,.95,0,1.82-.16,2.6-.48,.78-.32,1.26-.55,1.43-.69l.92,2.81Z"/>
    <path class="cls-1" d="M476.85,426.18v-5.1h3.47v5.1h-3.47Zm0,32.15v-26.59h3.47v26.59h-3.47Z"/>
    <path class="cls-1" d="M501.29,458.84c-1.94,0-3.72-.36-5.33-1.09-1.62-.73-3.01-1.73-4.19-2.99-1.17-1.27-2.08-2.72-2.73-4.36-.65-1.64-.97-3.37-.97-5.2s.32-3.66,.97-5.3c.65-1.64,1.56-3.1,2.76-4.36,1.19-1.27,2.59-2.27,4.21-2.99,1.62-.73,3.38-1.09,5.28-1.09s3.66,.36,5.26,1.09c1.6,.73,2.99,1.73,4.18,2.99,1.19,1.27,2.11,2.72,2.76,4.36,.65,1.64,.97,3.41,.97,5.3s-.32,3.56-.97,5.2c-.65,1.64-1.56,3.1-2.73,4.36-1.17,1.27-2.57,2.27-4.19,2.99-1.62,.73-3.38,1.09-5.28,1.09Zm-9.7-13.6c0,1.96,.43,3.74,1.3,5.35,.87,1.6,2.03,2.87,3.5,3.8,1.46,.93,3.08,1.39,4.85,1.39s3.38-.47,4.85-1.42c1.46-.95,2.64-2.24,3.52-3.88,.88-1.64,1.33-3.44,1.33-5.4s-.44-3.7-1.33-5.32c-.89-1.62-2.06-2.91-3.52-3.85-1.46-.95-3.08-1.42-4.85-1.42s-3.39,.49-4.85,1.47c-1.46,.98-2.63,2.27-3.5,3.88-.87,1.6-1.3,3.4-1.3,5.4Z"/>
    <path class="cls-1" d="M544.57,458.33h-3.47v-14.76c0-3.11-.46-5.38-1.38-6.82s-2.37-2.16-4.34-2.16c-1.36,0-2.7,.33-4.03,.99-1.33,.66-2.49,1.55-3.5,2.68-1,1.13-1.73,2.42-2.17,3.87v16.19h-3.47v-26.49h3.16v6.04c.71-1.29,1.65-2.41,2.81-3.37,1.16-.96,2.47-1.72,3.93-2.26,1.46-.54,2.98-.81,4.54-.81,1.46,0,2.7,.27,3.73,.81,1.02,.54,1.84,1.31,2.45,2.31,.61,1,1.05,2.2,1.33,3.6,.27,1.4,.41,2.97,.41,4.69v15.48Z"/>
    <path class="cls-1" d="M594.17,458.33l-18.07-19.05c-1.46-1.54-2.64-2.86-3.52-3.96-.89-1.09-1.51-2.08-1.89-2.97-.37-.89-.56-1.77-.56-2.65,0-1.48,.4-2.81,1.2-3.98,.8-1.18,1.89-2.12,3.27-2.82,1.38-.71,2.92-1.06,4.62-1.06,1.6,0,3.04,.29,4.31,.88,1.28,.59,2.29,1.41,3.04,2.47,.75,1.06,1.12,2.29,1.12,3.7,0,1.51-.43,2.87-1.3,4.06s-1.99,2.3-3.37,3.33c-1.38,1.02-2.9,2.06-4.57,3.1-1.4,.94-2.68,1.89-3.85,2.84-1.17,.96-2.1,1.97-2.78,3.04-.68,1.07-1.02,2.3-1.02,3.67,0,1.48,.43,2.72,1.28,3.75,.85,1.02,1.93,1.79,3.24,2.31,1.31,.52,2.66,.78,4.06,.78,1.84,0,3.53-.42,5.08-1.25,1.55-.83,2.9-1.99,4.06-3.47,1.16-1.48,2.05-3.17,2.68-5.08,.63-1.91,.94-3.93,.94-6.07h2.96c0,2.59-.41,5.01-1.22,7.27-.82,2.26-1.95,4.24-3.39,5.95-1.45,1.7-3.15,3.04-5.1,4.01-1.96,.97-4.07,1.45-6.35,1.45-2.11,0-4.05-.41-5.82-1.23-1.77-.82-3.17-1.96-4.21-3.4-1.04-1.44-1.56-3.14-1.56-5.09,0-1.81,.43-3.4,1.3-4.76,.87-1.36,1.99-2.59,3.37-3.68,1.38-1.09,2.83-2.13,4.36-3.1,1.56-1,2.95-1.94,4.16-2.79,1.21-.85,2.15-1.73,2.83-2.61,.68-.89,1.02-1.85,1.02-2.89,0-1.31-.49-2.38-1.48-3.22-.99-.84-2.25-1.26-3.78-1.26-1.12,0-2.13,.23-3.01,.7-.89,.47-1.58,1.09-2.09,1.86-.51,.77-.77,1.61-.77,2.51,0,.57,.14,1.17,.41,1.78,.27,.62,.8,1.39,1.58,2.31,.78,.92,1.9,2.14,3.37,3.65l20.06,20.96h-4.59Z"/>
    <path class="cls-1" d="M620.5,458.33v-36.23h3.57v36.23h-3.57Z"/>
    <path class="cls-1" d="M656.74,458.33h-3.47v-14.76c0-3.11-.46-5.38-1.38-6.82s-2.37-2.16-4.34-2.16c-1.36,0-2.7,.33-4.03,.99-1.33,.66-2.49,1.55-3.5,2.68-1,1.13-1.73,2.42-2.17,3.87v16.19h-3.47v-26.49h3.16v6.04c.71-1.29,1.65-2.41,2.81-3.37,1.16-.96,2.47-1.72,3.93-2.26,1.46-.54,2.98-.81,4.54-.81,1.46,0,2.7,.27,3.73,.81,1.02,.54,1.84,1.31,2.45,2.31,.61,1,1.05,2.2,1.33,3.6,.27,1.4,.41,2.97,.41,4.69v15.48Z"/>
    <path class="cls-1" d="M678.58,457.25c-.27,.1-.7,.29-1.28,.56-.58,.27-1.28,.51-2.09,.71s-1.7,.31-2.65,.31-1.91-.19-2.78-.56c-.87-.38-1.56-.95-2.07-1.72-.51-.77-.77-1.72-.77-2.84v-19.12h-3.67v-2.76h3.67v-8.98h3.47v8.98h6.12v2.76h-6.12v18.15c.07,.96,.42,1.68,1.05,2.15,.63,.48,1.35,.72,2.17,.72,.95,0,1.82-.16,2.6-.48,.78-.32,1.26-.55,1.43-.69l.92,2.81Z"/>
    <path class="cls-1" d="M695.88,458.84c-1.91,0-3.67-.36-5.31-1.09-1.63-.73-3.05-1.73-4.24-3-1.19-1.27-2.12-2.74-2.78-4.4-.66-1.66-1-3.44-1-5.34,0-2.46,.57-4.73,1.71-6.79,1.14-2.06,2.71-3.71,4.72-4.94,2.01-1.23,4.29-1.85,6.84-1.85s4.91,.62,6.86,1.88c1.96,1.25,3.5,2.9,4.62,4.94,1.12,2.04,1.68,4.28,1.68,6.72v.79c0,.25-.02,.45-.05,.58h-22.76c.17,1.9,.71,3.58,1.61,5.05,.9,1.47,2.07,2.64,3.52,3.5,1.45,.86,3.02,1.29,4.72,1.29s3.38-.44,4.92-1.33c1.55-.88,2.63-2.04,3.24-3.47l3.01,.82c-.54,1.26-1.38,2.4-2.5,3.42-1.12,1.02-2.44,1.81-3.96,2.37-1.51,.56-3.14,.84-4.87,.84Zm-9.8-15h19.65c-.14-1.92-.66-3.6-1.56-5.05-.9-1.45-2.08-2.58-3.52-3.41-1.45-.82-3.04-1.24-4.77-1.24s-3.32,.41-4.75,1.24c-1.43,.82-2.59,1.97-3.5,3.43-.9,1.46-1.42,3.14-1.56,5.02Z"/>
    <path class="cls-1" d="M726.96,458.84c-1.8,0-3.47-.37-5-1.12-1.53-.75-2.85-1.76-3.96-3.04-1.11-1.28-1.96-2.73-2.58-4.36-.61-1.63-.92-3.32-.92-5.05,0-1.87,.3-3.63,.89-5.28,.59-1.65,1.45-3.12,2.55-4.41,1.11-1.29,2.41-2.3,3.9-3.04,1.5-.73,3.16-1.1,5-1.1,2.28,0,4.26,.57,5.95,1.71,1.68,1.14,3.1,2.56,4.26,4.26v-5.56h3.11v26.62c0,2.44-.59,4.5-1.76,6.18-1.17,1.68-2.76,2.94-4.75,3.79-1.99,.85-4.16,1.27-6.51,1.27-3.03,0-5.48-.54-7.35-1.63-1.87-1.09-3.4-2.55-4.59-4.39l2.14-1.68c1.05,1.67,2.46,2.91,4.21,3.73,1.75,.82,3.61,1.22,5.59,1.22,1.74,0,3.33-.31,4.77-.93,1.45-.62,2.6-1.54,3.47-2.78,.87-1.24,1.3-2.79,1.3-4.66v-5.26c-1.02,1.67-2.42,3-4.18,4.01-1.77,1-3.62,1.51-5.56,1.51Zm.97-2.91c1.05,0,2.07-.19,3.04-.56,.97-.37,1.86-.88,2.68-1.51,.82-.63,1.5-1.33,2.04-2.12,.54-.78,.88-1.58,1.02-2.4v-8.22c-.51-1.29-1.24-2.44-2.19-3.44-.95-1-2.03-1.79-3.24-2.35-1.21-.56-2.46-.84-3.75-.84-1.5,0-2.83,.31-4.01,.94-1.17,.63-2.16,1.46-2.96,2.5-.8,1.04-1.42,2.2-1.86,3.5-.44,1.29-.66,2.59-.66,3.88,0,1.43,.26,2.78,.77,4.06s1.22,2.42,2.12,3.42c.9,1,1.96,1.78,3.16,2.32,1.21,.54,2.49,.82,3.85,.82Z"/>
    <path class="cls-1" d="M763.04,434.8c-2.31,.07-4.35,.71-6.1,1.94-1.75,1.23-2.99,2.91-3.7,5.05v16.53h-3.47v-26.49h3.27v6.28c.92-1.87,2.13-3.38,3.65-4.54,1.51-1.16,3.12-1.8,4.82-1.94,.34-.03,.64-.05,.89-.05s.47,.02,.64,.05v3.16Z"/>
    <path class="cls-1" d="M767.38,450.72c0-1.66,.48-3.08,1.43-4.29,.95-1.2,2.27-2.13,3.96-2.79,1.68-.66,3.63-.99,5.84-.99,1.29,0,2.64,.1,4.03,.31,1.39,.2,2.64,.51,3.73,.92v-2.24c0-2.23-.66-4.01-1.99-5.33-1.33-1.32-3.16-1.98-5.51-1.98-1.43,0-2.83,.26-4.21,.79-1.38,.53-2.82,1.3-4.31,2.32l-1.33-2.45c1.74-1.19,3.44-2.08,5.1-2.68,1.67-.59,3.37-.89,5.1-.89,3.27,0,5.85,.93,7.76,2.79,1.91,1.86,2.86,4.43,2.86,7.71v12.22c0,.47,.1,.82,.31,1.04,.2,.22,.53,.35,.97,.38v2.76c-.37,.03-.7,.07-.97,.1-.27,.03-.48,.03-.61,0-.85-.03-1.5-.31-1.94-.82-.44-.51-.68-1.05-.71-1.63l-.05-1.94c-1.19,1.53-2.74,2.71-4.64,3.55-1.91,.83-3.84,1.25-5.82,1.25-1.7,0-3.24-.36-4.62-1.09-1.38-.73-2.45-1.71-3.21-2.94-.77-1.23-1.15-2.59-1.15-4.08Zm17.81,2.02c.37-.47,.66-.93,.87-1.37,.2-.44,.31-.83,.31-1.16v-3.84c-1.16-.44-2.36-.78-3.6-1.01-1.24-.24-2.49-.35-3.75-.35-2.48,0-4.49,.49-6.02,1.47-1.53,.98-2.3,2.31-2.3,3.99,0,.98,.26,1.9,.77,2.76,.51,.86,1.26,1.57,2.25,2.12,.99,.56,2.14,.83,3.47,.83,1.67,0,3.22-.32,4.67-.96,1.45-.64,2.56-1.47,3.34-2.48Z"/>
    <path class="cls-1" d="M811.82,457.25c-.27,.1-.7,.29-1.28,.56-.58,.27-1.28,.51-2.09,.71s-1.7,.31-2.65,.31-1.91-.19-2.78-.56c-.87-.38-1.56-.95-2.07-1.72-.51-.77-.77-1.72-.77-2.84v-19.12h-3.67v-2.76h3.67v-8.98h3.47v8.98h6.12v2.76h-6.12v18.15c.07,.96,.42,1.68,1.05,2.15,.63,.48,1.35,.72,2.17,.72,.95,0,1.82-.16,2.6-.48,.78-.32,1.26-.55,1.43-.69l.92,2.81Z"/>
    <path class="cls-1" d="M818.1,426.18v-5.1h3.47v5.1h-3.47Zm0,32.15v-26.59h3.47v26.59h-3.47Z"/>
    <path class="cls-1" d="M842.55,458.84c-1.94,0-3.72-.36-5.33-1.09-1.62-.73-3.01-1.73-4.19-2.99-1.17-1.27-2.08-2.72-2.73-4.36-.65-1.64-.97-3.37-.97-5.2s.32-3.66,.97-5.3c.65-1.64,1.56-3.1,2.76-4.36,1.19-1.27,2.59-2.27,4.21-2.99,1.62-.73,3.38-1.09,5.28-1.09s3.66,.36,5.26,1.09c1.6,.73,2.99,1.73,4.18,2.99,1.19,1.27,2.11,2.72,2.76,4.36,.65,1.64,.97,3.41,.97,5.3s-.32,3.56-.97,5.2c-.65,1.64-1.56,3.1-2.73,4.36-1.17,1.27-2.57,2.27-4.19,2.99-1.62,.73-3.38,1.09-5.28,1.09Zm-9.7-13.6c0,1.96,.43,3.74,1.3,5.35,.87,1.6,2.03,2.87,3.5,3.8,1.46,.93,3.08,1.39,4.85,1.39s3.38-.47,4.85-1.42c1.46-.95,2.64-2.24,3.52-3.88,.88-1.64,1.33-3.44,1.33-5.4s-.44-3.7-1.33-5.32c-.89-1.62-2.06-2.91-3.52-3.85-1.46-.95-3.08-1.42-4.85-1.42s-3.39,.49-4.85,1.47c-1.46,.98-2.63,2.27-3.5,3.88-.87,1.6-1.3,3.4-1.3,5.4Z"/>
    <path class="cls-1" d="M885.82,458.33h-3.47v-14.76c0-3.11-.46-5.38-1.38-6.82s-2.37-2.16-4.34-2.16c-1.36,0-2.7,.33-4.03,.99-1.33,.66-2.49,1.55-3.5,2.68-1,1.13-1.73,2.42-2.17,3.87v16.19h-3.47v-26.49h3.16v6.04c.71-1.29,1.65-2.41,2.81-3.37,1.16-.96,2.47-1.72,3.93-2.26,1.46-.54,2.98-.81,4.54-.81,1.46,0,2.7,.27,3.73,.81,1.02,.54,1.84,1.31,2.45,2.31,.61,1,1.05,2.2,1.33,3.6,.27,1.4,.41,2.97,.41,4.69v15.48Z"/>
  </g>
</svg>